<svg xmlns="http://www.w3.org/2000/svg" viewBox="0 0 1600 760"><defs><linearGradient id="sky" x1="0" x2="1"><stop stop-color="#315f3c"/><stop offset=".48" stop-color="#d8c692"/><stop offset="1" stop-color="#2090b2"/></linearGradient><radialGradient id="paper" cx=".5" cy=".62" r=".43"><stop stop-color="#fff7e7"/><stop offset=".55" stop-color="#fff7e7" stop-opacity=".72"/><stop offset="1" stop-color="#fff7e7" stop-opacity="0"/></radialGradient></defs><rect width="1600" height="760" fill="url(#sky)"/><path d="M0 365 L150 210 L260 310 L390 120 L520 340 L680 250 L800 400 L0 620Z" fill="#173f31" opacity=".9"/><path d="M950 460 C1100 330 1280 330 1600 260 L1600 760 L880 760Z" fill="#087896" opacity=".75"/><path d="M1210 350 C1270 310 1330 350 1320 410 C1260 430 1210 410 1210 350Z" fill="#416d35"/><path d="M60 520 Q250 450 450 525 T820 500 T1600 535 L1600 760 L0 760Z" fill="#c7a96b" opacity=".55"/><path d="M0 560 Q250 505 500 550 T1000 540 T1600 560 L1600 760 L0 760Z" fill="#f1e3c4" opacity=".7"/><circle cx="805" cy="455" r="300" fill="url(#paper)"/><g fill="#79562b" opacity=".55"><rect x="120" y="400" width="90" height="90"/><rect x="145" y="365" width="45" height="45"/><rect x="260" y="445" width="120" height="80"/><rect x="295" y="395" width="55" height="50"/><rect x="1370" y="345" width="70" height="145"/><rect x="1390" y="310" width="30" height="35"/></g></svg>
